<svg width="134" height="26" viewBox="0 0 134 26" fill="none" xmlns="http://www.w3.org/2000/svg">
<rect x="1" y="1" width="36" height="24" rx="4" fill="white" stroke="#EBE2D1"/>
<path fill-rule="evenodd" clip-rule="evenodd" d="M23.7624 14.2525C23.7669 13.1089 22.8238 12.615 22.0919 12.2317C21.6285 11.989 21.2499 11.7907 21.2499 11.5C21.2499 11.2525 21.4899 10.99 21.9999 10.9225C22.6068 10.8624 23.2187 10.9687 23.7699 11.23L24.0849 9.72999C23.5476 9.5285 22.9787 9.42438 22.4049 9.42249C20.6349 9.42249 19.4049 10.3675 19.4049 11.7175C19.4049 12.715 20.2974 13.27 20.9724 13.6C21.6474 13.93 21.9099 14.1625 21.9024 14.4625C21.9024 14.9275 21.3474 15.1375 20.8299 15.145C20.1915 15.1532 19.5616 14.9983 18.9999 14.695L18.6774 16.195C19.313 16.4431 19.99 16.5678 20.6724 16.5625C22.5549 16.5625 23.7924 15.6325 23.7999 14.1925L23.7624 14.2525ZM18.8949 9.54249L17.3949 16.48H15.5949L17.0949 9.54249H18.8949ZM26.4399 14.0425L27.3849 11.44L27.9324 14.0425H26.4399ZM30.1074 16.5025H28.4424L28.2249 15.4675H25.9674L25.5999 16.5025H23.7099L26.4024 10.075C26.5265 9.76918 26.8223 9.56801 27.1524 9.56499H28.6524L30.1074 16.5025ZM13.4574 16.4575L16.3674 9.51998H14.4174L12.5499 14.2375L11.7999 10.225C11.7335 9.81725 11.3805 9.5183 10.9674 9.51998H7.91487L7.86987 9.72248C8.48213 9.84227 9.07682 10.0388 9.63987 10.3075C9.87969 10.4202 10.0422 10.6512 10.0674 10.915L11.4999 16.4575H13.4574Z" fill="#2A2A6C"/>
<rect x="49" y="1" width="36" height="24" rx="4" fill="white" stroke="#EBE2D1"/>
<g opacity="0.01">
<rect x="52.4875" y="3.40002" width="29.0325" height="19.2" fill="white"/>
</g>
<rect x="63.175" y="6.74506" width="7.6575" height="12.51" fill="#F26122"/>
<path d="M64.0001 13C63.9874 10.5652 65.0933 8.25933 67.0001 6.74504C63.7377 4.17951 59.0515 4.55206 56.2355 7.6008C53.4195 10.6495 53.4195 15.3506 56.2355 18.3993C59.0515 21.448 63.7377 21.8206 67.0001 19.255C65.0933 17.7408 63.9874 15.4349 64.0001 13Z" fill="#EA1D25"/>
<path fill-rule="evenodd" clip-rule="evenodd" d="M79.1051 17.6726V17.9276H79.0601V17.6726H78.9551V17.6201H79.2176V17.6726H79.1051ZM79.6151 17.6201V17.9276H79.5626V17.6951L79.4801 17.8976H79.4201L79.3301 17.6951V17.9276H79.2776V17.6201H79.3526L79.4501 17.8376L79.5401 17.6201H79.6151Z" fill="#F69E1E"/>
<path d="M79.87 13.0001C79.868 16.0446 78.1291 18.8211 75.3909 20.1519C72.6527 21.4827 69.3951 21.1346 67 19.255C70.45 16.5385 71.0475 11.5408 68.335 8.08755C67.9462 7.5875 67.4979 7.13668 67 6.74505C69.3951 4.86555 72.6527 4.51736 75.3909 5.84818C78.1291 7.179 79.868 9.95554 79.87 13.0001Z" fill="#F69E1E"/>
<rect x="97" y="1" width="36" height="24" rx="4" fill="white" stroke="#EBE2D1"/>
<g clip-path="url(#clip0_161_848)">
<path d="M115.98 10.6966C115.98 9.99928 115.366 9.884 114.737 9.884C114.516 9.884 114.196 9.884 113.88 9.884C113.346 9.884 112.825 9.884 112.825 9.884V12.4409H113.88V11.4914H113.964L114.766 12.4409H116.248L115.17 11.4342C115.686 11.3464 115.98 11.0749 115.98 10.6966ZM114.506 11.0349C114.287 11.0349 113.88 11.0349 113.88 11.0349V10.4291C113.88 10.4291 114.437 10.4291 114.509 10.4291C114.73 10.4291 114.89 10.5361 114.89 10.7343C114.89 10.9333 114.725 11.0349 114.506 11.0349ZM120.436 9.82306C120.906 9.82306 121.255 9.89132 121.446 9.9634V10.5912C121.251 10.5417 120.975 10.4817 120.62 10.4817C120.444 10.4817 119.617 10.5088 119.617 11.1836C119.617 11.8579 120.444 11.8642 120.62 11.8642C120.944 11.8642 121.251 11.805 121.446 11.7546V12.3832C121.255 12.4551 120.906 12.5228 120.436 12.5228C119.884 12.5228 118.449 12.3741 118.449 11.1836C118.449 9.99269 119.884 9.82306 120.436 9.82306ZM116.698 9.884H117.815V12.4409H116.698V9.884ZM109.419 9.884H112.052V10.4078H110.584V10.8864H112.052V11.3814H110.584V11.8809H112.052V12.4409H109.419V9.884ZM101.253 9.884L99.9447 12.4409H101.018L101.259 11.9379H102.605L102.846 12.4409H103.984L102.674 9.884H101.253ZM101.536 11.3588L101.931 10.5338L102.327 11.3588H101.536ZM108.24 9.884L108.859 12.4409H107.8L107.451 10.9924L106.774 12.4409H106.106L105.429 10.9924L105.081 12.4409H104.088L104.706 9.884H105.839L106.442 11.148L107.041 9.884H108.24ZM105.854 14.7764L107.038 16.0954H105.781L105.089 15.2756L104.4 16.0954H103.142L104.329 14.7764L103.262 13.5385H104.538L105.089 14.2205L105.642 13.5385H106.92L105.854 14.7764ZM115.093 13.5385H117.726V14.0623H116.258V14.5409H117.726V15.0359H116.258V15.5354H117.726V16.0954H115.093V13.5385ZM121.373 15.3337C121.373 15.594 121.16 16.1773 119.858 16.1773C118.787 16.1773 118.448 15.9611 118.22 15.8324L118.511 15.3753C118.958 15.551 119.31 15.5585 119.564 15.5553C119.835 15.5519 120.088 15.5015 120.09 15.3348C120.093 15.1602 119.92 15.118 119.513 15.0873C119.135 15.0586 118.356 14.9531 118.35 14.351C118.344 13.765 118.915 13.4799 119.811 13.4799C120.297 13.4799 120.896 13.5542 121.316 13.7809L120.954 14.2312C120.623 14.1146 120.37 14.0896 120.115 14.0896C119.839 14.0896 119.557 14.1397 119.557 14.3294C119.557 14.5208 119.849 14.5271 120.059 14.5516C120.326 14.5826 120.669 14.5875 120.948 14.7112C121.279 14.8592 121.373 15.0627 121.373 15.3337ZM124.921 15.3337C124.921 15.594 124.708 16.1773 123.407 16.1773C122.336 16.1773 121.946 15.9611 121.717 15.8324L122.06 15.3753C122.507 15.551 122.857 15.5585 123.112 15.5553C123.383 15.5519 123.636 15.5015 123.638 15.3348C123.642 15.1602 123.47 15.118 123.062 15.0873C122.683 15.0586 121.853 14.9531 121.848 14.351C121.841 13.765 122.464 13.4799 123.359 13.4799C123.845 13.4799 124.443 13.5542 124.866 13.7809L124.502 14.2312C124.172 14.1146 123.918 14.0896 123.664 14.0896C123.388 14.0896 123.105 14.1397 123.105 14.3294C123.105 14.5208 123.399 14.5271 123.606 14.5516C123.874 14.5826 124.218 14.5875 124.495 14.7112C124.826 14.8592 124.921 15.0627 124.921 15.3337ZM114.339 14.351C114.339 13.6538 113.725 13.5385 113.096 13.5385C112.875 13.5385 112.554 13.5385 112.239 13.5385C111.704 13.5385 111.183 13.5385 111.183 13.5385V16.0954H112.239V15.1459H112.324L113.124 16.0954H114.606L113.528 15.0887C114.046 15.0008 114.339 14.7294 114.339 14.351ZM112.865 14.6894C112.646 14.6894 112.239 14.6894 112.239 14.6894V14.0836C112.239 14.0836 112.796 14.0836 112.867 14.0836C113.089 14.0836 113.249 14.1906 113.249 14.3888C113.249 14.5878 113.085 14.6894 112.865 14.6894ZM129.002 9.884H130.057V12.4409H128.843L127.287 10.9976V12.4409H126.233V9.884H127.433L129.002 11.333V9.884ZM123.061 9.884L121.752 12.4409H122.826L123.066 11.9379H124.412L124.654 12.4409H125.791L124.482 9.884H123.061ZM123.343 11.3588L123.74 10.5338L124.135 11.3588H123.343ZM99.9429 13.5385H102.576V14.0623H101.108V14.5409H102.576V15.0359H101.108V15.5354H102.576V16.0954H99.9429V13.5385ZM109.424 13.5385C109.216 13.5385 108.928 13.5385 108.64 13.5385C108.109 13.5385 107.584 13.5385 107.584 13.5385V16.0954H108.64V15.1878C108.64 15.1878 109.03 15.1878 109.33 15.1878C109.65 15.1878 109.922 15.1633 110.17 15.0592C110.458 14.9377 110.669 14.7294 110.669 14.351C110.669 13.6538 110.055 13.5385 109.424 13.5385ZM109.194 14.6427C108.975 14.6427 108.64 14.6427 108.64 14.6427V14.0623C108.64 14.0623 109.125 14.0623 109.197 14.0623C109.418 14.0623 109.577 14.1436 109.577 14.342C109.577 14.5409 109.413 14.6427 109.194 14.6427Z" fill="#1274B8"/>
</g>
<defs>
<clipPath id="clip0_161_848">
<rect width="31.5" height="9" fill="white" transform="translate(99.25 8.50018)"/>
</clipPath>
</defs>
</svg>
