<svg width="38" height="26" viewBox="0 0 38 26" fill="none" xmlns="http://www.w3.org/2000/svg">
<rect x="1" y="1" width="36" height="24" rx="4" fill="white" stroke="#EBE2D1"/>
<path d="M14.0964 20.1704C12.3211 19.2208 11.2064 17.4456 11.0413 15.4639V13.8537C11.1239 13.606 11.3716 13.3996 11.6606 13.3996C11.9909 13.3996 12.2798 13.6886 12.2798 14.0189V14.8446C12.2798 16.6199 13.1881 18.23 14.757 19.097C16.2845 20.0053 18.1837 20.0053 19.6699 19.097L20.4131 18.6841C20.7021 18.519 21.0736 18.6016 21.2388 18.8906C21.4039 19.1796 21.3214 19.5511 21.0324 19.7163L20.2892 20.1291C19.3397 20.7071 18.2662 20.9961 17.1928 20.9961C16.1194 21.0374 15.046 20.7484 14.0964 20.1704ZM22.1884 18.2713C22.0232 17.9823 22.1471 17.6107 22.4361 17.4456L23.1379 17.0327C24.6655 16.1657 25.615 14.5556 25.615 12.7803C25.6563 11.005 24.7068 9.39491 23.1379 8.52792L19.5874 6.46364C18.0598 5.55536 16.1607 5.55536 14.6331 6.46364C13.1056 7.33064 12.156 8.94077 12.1973 10.716V11.5418C12.1973 11.872 11.9083 12.161 11.578 12.161C11.289 12.161 11.0413 11.9546 11 11.7069V10.138C11.1651 8.15635 12.2798 6.38107 14.0551 5.43151C15.9543 4.3168 18.3075 4.3168 20.2067 5.43151L23.7985 7.49578C25.7389 8.5692 26.9362 10.5922 26.8949 12.8216C26.9362 15.0097 25.7389 17.074 23.7985 18.1474L23.0966 18.5603L23.0554 18.6016C22.9315 18.6016 22.8489 18.6016 22.7251 18.6016C22.5186 18.6016 22.3122 18.4777 22.1884 18.2713ZM15.335 18.0236C14.179 17.363 13.4771 16.1657 13.4771 14.8446V10.716C13.4358 9.39491 14.179 8.15635 15.335 7.53707C16.4497 6.8765 17.8947 6.8765 19.0094 7.53707L19.7525 7.94992C20.0415 8.11506 20.1241 8.48663 19.9589 8.77563C19.7938 9.06463 19.4222 9.18848 19.1332 9.02334L18.4314 8.61049C17.647 8.15635 16.7387 8.15635 15.9543 8.61049C15.1698 9.02334 14.7157 9.84905 14.7157 10.7573V14.8859C14.7157 15.7529 15.1698 16.5786 15.9543 17.0327C16.6974 17.4869 17.647 17.4869 18.4314 17.0327L21.9819 14.9684C22.7664 14.5556 23.2205 13.7299 23.2205 12.8216C23.2205 11.9546 22.7664 11.1289 21.9819 10.6748L21.2388 10.2619C20.9498 10.0968 20.8672 9.68391 21.0736 9.4362C21.2388 9.18848 21.5691 9.06463 21.8581 9.22977L22.5599 9.64262C23.7159 10.3032 24.4178 11.5005 24.4178 12.8216C24.4591 14.1427 23.7159 15.3813 22.5599 16.0006L19.0094 18.0649C18.4314 18.3951 17.8121 18.5603 17.1515 18.5603C16.5322 18.519 15.913 18.3539 15.335 18.0236ZM16.0781 15.4226C15.9543 15.2574 15.913 15.051 15.913 14.8446V14.0189C15.9543 13.6886 16.2433 13.4409 16.5735 13.4822C16.8625 13.5235 17.1102 13.7299 17.1102 14.0189V14.5969C17.1102 14.6382 17.1515 14.6794 17.1928 14.7207C17.2341 14.7207 17.2754 14.7207 17.358 14.7207L18.9268 13.8125L20.4957 12.9042C20.5369 12.9042 20.5782 12.8216 20.5782 12.7803C20.5782 12.739 20.5369 12.6565 20.4957 12.6565L18.9268 11.7482L17.358 10.8399C17.3167 10.7986 17.2341 10.7986 17.1928 10.8399C17.1515 10.8399 17.1102 10.9225 17.1102 10.9638V11.5418C17.069 11.872 16.78 12.1197 16.4497 12.0785C16.1607 12.0372 15.913 11.8308 15.913 11.5418V10.716C15.913 10.2619 16.1607 9.89034 16.5322 9.68391C16.9038 9.47748 17.358 9.47748 17.7708 9.68391L21.3214 11.7482C21.6929 11.9546 21.9406 12.3675 21.9406 12.7803C21.9406 13.2345 21.6929 13.606 21.3214 13.8125L17.7708 15.8767C17.5644 16.0006 17.358 16.0419 17.1515 16.0419C16.7387 16.0419 16.3258 15.8354 16.0781 15.4226Z" fill="#F5821E"/>
</svg>
